<?xml version="1.0" encoding="utf-8"?>
<!-- Generator: Adobe Illustrator 21.0.0, SVG Export Plug-In . SVG Version: 6.00 Build 0)  -->
<svg version="1.1" id="Calque_1" xmlns="http://www.w3.org/2000/svg" xmlns:xlink="http://www.w3.org/1999/xlink" x="0px" y="0px"
	 viewBox="0 0 148.1 148.1" style="enable-background:new 0 0 148.1 148.1;" xml:space="preserve">
<style type="text/css">
	.st0{fill:#F37400;}
</style>
<g>
	<path class="st0" d="M64.8,112.6c-5.8,4.2-12.9,6.4-21.4,6.4c-9.5,0-16.9-3.4-22.4-10.1S12.8,93,12.8,81.2s3-21.5,9-28.9
		c6-7.5,13.9-11.2,23.8-11.2c6.2,0,11.7,1.1,16.5,3.3v15.9c-4.5-3.4-10.1-5-16.7-5c-5.5,0-10,2.3-13.5,6.9s-5.2,10.7-5.2,18.3
		c0,7.7,1.6,13.7,4.7,18c3.1,4.2,7.3,6.4,12.6,6.4c3.2,0,5.7-0.6,7.6-1.7V88.3H39.7V74.7h25.1V112.6z"/>
	<path class="st0" d="M135.9,63.9l-12.1,53.8h-13.6L104,86.2c-0.4-2.1-0.6-4.4-0.7-6.9H103c-0.2,2.7-0.5,5-0.8,6.7l-6.7,31.7H82
		L70.1,63.9h13.2L89.1,99c0.3,1.6,0.5,3.6,0.6,6H90c0.1-2.5,0.4-4.5,0.7-6.2L98,63.9h12.4l6.5,35.1c0.2,0.9,0.4,2.9,0.6,6.1h0.3
		c0.1-2,0.4-4.1,0.7-6.1l5.5-35.1H135.9z"/>
</g>
<g>
	<path class="st0" d="M26.8,134.2c-1.1,0.7-2.5,1-4.1,1c-1.8,0-3.3-0.5-4.3-1.6c-1-1.1-1.6-2.5-1.6-4.4c0-1.9,0.6-3.4,1.7-4.6
		s2.7-1.8,4.6-1.8c1.2,0,2.3,0.2,3.2,0.5v2.5c-0.9-0.5-1.9-0.8-3.2-0.8c-1.1,0-1.9,0.4-2.6,1.1s-1,1.7-1,2.9s0.3,2.2,0.9,2.9
		s1.4,1,2.4,1c0.6,0,1.1-0.1,1.5-0.3v-2.3H22v-2.2h4.8V134.2z"/>
	<path class="st0" d="M31.2,135h-2.5v-12.7h2.5V135z"/>
	<path class="st0" d="M37.2,135.2c-1.3,0-2.4-0.4-3.2-1.2s-1.2-1.9-1.2-3.3c0-1.4,0.4-2.5,1.2-3.3s1.9-1.2,3.2-1.2s2.4,0.4,3.2,1.2
		c0.8,0.8,1.1,1.9,1.1,3.2c0,1.4-0.4,2.5-1.2,3.4C39.6,134.8,38.5,135.2,37.2,135.2z M37.2,128.2c-0.6,0-1,0.2-1.4,0.6
		c-0.3,0.4-0.5,1-0.5,1.8c0,1.6,0.6,2.5,1.9,2.5c1.2,0,1.8-0.8,1.8-2.5C39,129,38.4,128.2,37.2,128.2z"/>
	<path class="st0" d="M45.7,134L45.7,134v1h-2.5v-12.7h2.5v5.4l0,0c0.6-1,1.5-1.5,2.6-1.5c1,0,1.8,0.4,2.4,1.1
		c0.6,0.8,0.8,1.8,0.8,3.1c0,1.4-0.3,2.6-1,3.4s-1.5,1.3-2.6,1.3C47,135.2,46.2,134.8,45.7,134z M45.7,130.4v0.9
		c0,0.6,0.1,1,0.4,1.4c0.3,0.4,0.7,0.5,1.2,0.5c0.6,0,1-0.2,1.3-0.7s0.5-1.1,0.5-2c0-0.7-0.1-1.3-0.4-1.7c-0.3-0.4-0.7-0.6-1.2-0.6
		s-0.9,0.2-1.2,0.6C45.8,129.2,45.7,129.7,45.7,130.4z"/>
	<path class="st0" d="M59.9,135h-2.4v-1.2l0,0c-0.5,1-1.3,1.4-2.4,1.4c-0.8,0-1.4-0.2-1.8-0.7c-0.4-0.5-0.7-1.1-0.7-1.9
		c0-1.7,0.9-2.6,2.8-2.9l2.2-0.3c0-0.9-0.5-1.4-1.4-1.4c-1,0-1.9,0.3-2.7,0.9v-2c0.3-0.2,0.8-0.4,1.4-0.5c0.6-0.1,1.1-0.2,1.6-0.2
		c2.3,0,3.5,1.2,3.5,3.6L59.9,135L59.9,135z M57.6,131.5v-0.6l-1.5,0.2c-0.8,0.1-1.2,0.5-1.2,1.2c0,0.3,0.1,0.5,0.3,0.7
		s0.5,0.3,0.8,0.3c0.5,0,0.8-0.2,1.1-0.5C57.4,132.4,57.6,132,57.6,131.5z"/>
	<path class="st0" d="M64.4,135h-2.5v-12.7h2.5V135z"/>
	<path class="st0" d="M86,123l-3,12h-2.8l-1.9-7.7c-0.1-0.4-0.2-0.8-0.2-1.3l0,0c0,0.5-0.1,1-0.2,1.3L76,135h-3l-3-12h2.8l1.6,8
		c0.1,0.3,0.1,0.8,0.1,1.4l0,0c0-0.4,0.1-0.9,0.2-1.4l2-7.9h2.7l1.9,8c0.1,0.3,0.1,0.7,0.2,1.3l0,0c0-0.4,0.1-0.9,0.2-1.3l1.6-8H86
		V123z"/>
	<path class="st0" d="M93.9,135h-2.4v-1.2l0,0c-0.5,1-1.3,1.4-2.4,1.4c-0.8,0-1.4-0.2-1.8-0.7s-0.7-1.1-0.7-1.9
		c0-1.7,0.9-2.6,2.8-2.9l2.2-0.3c0-0.9-0.5-1.4-1.4-1.4c-1,0-1.9,0.3-2.7,0.9v-2c0.3-0.2,0.8-0.4,1.4-0.5s1.1-0.2,1.6-0.2
		c2.3,0,3.5,1.2,3.5,3.6L93.9,135L93.9,135z M91.5,131.5v-0.6l-1.5,0.2c-0.8,0.1-1.2,0.5-1.2,1.2c0,0.3,0.1,0.5,0.3,0.7
		c0.2,0.2,0.5,0.3,0.8,0.3c0.5,0,0.8-0.2,1.1-0.5C91.4,132.4,91.5,132,91.5,131.5z"/>
	<path class="st0" d="M101.1,128.8c-0.3-0.2-0.6-0.3-1-0.3c-0.5,0-1,0.2-1.3,0.6c-0.3,0.4-0.5,1-0.5,1.7v4.1h-2.5v-8.5h2.5v1.6l0,0
		c0.4-1.2,1.1-1.7,2.1-1.7c0.3,0,0.5,0,0.6,0.1v2.4H101.1z"/>
	<path class="st0" d="M110.1,135h-2.5v-4.7c0-1.3-0.4-2-1.3-2c-0.4,0-0.8,0.2-1.1,0.5c-0.3,0.4-0.4,0.8-0.4,1.3v4.9h-2.5v-8.5h2.5
		v1.4l0,0c0.6-1,1.5-1.6,2.6-1.6c1.8,0,2.7,1.2,2.7,3.5C110.1,129.8,110.1,135,110.1,135z"/>
	<path class="st0" d="M113.3,125.1c-0.4,0-0.8-0.1-1-0.4c-0.3-0.3-0.4-0.6-0.4-1s0.1-0.7,0.4-1s0.6-0.4,1-0.4s0.8,0.1,1,0.4
		c0.3,0.3,0.4,0.6,0.4,1s-0.1,0.7-0.4,1C114.1,124.9,113.7,125.1,113.3,125.1z M114.5,135H112v-8.5h2.5V135z"/>
	<path class="st0" d="M124.4,135h-2.5v-4.7c0-1.3-0.4-2-1.3-2c-0.4,0-0.8,0.2-1.1,0.5c-0.3,0.4-0.4,0.8-0.4,1.3v4.9h-2.5v-8.5h2.5
		v1.4l0,0c0.6-1,1.5-1.6,2.6-1.6c1.8,0,2.7,1.2,2.7,3.5C124.4,129.8,124.4,135,124.4,135z"/>
	<path class="st0" d="M134.3,134c0,1.6-0.4,2.8-1.3,3.7c-0.9,0.9-2.1,1.3-3.8,1.3c-1.1,0-1.9-0.2-2.6-0.5v-2.2
		c0.8,0.5,1.7,0.8,2.5,0.8s1.5-0.2,2-0.7s0.7-1.1,0.7-1.9v-0.7l0,0c-0.6,1-1.4,1.4-2.5,1.4c-1,0-1.8-0.4-2.5-1.2
		c-0.6-0.8-0.9-1.8-0.9-3.1c0-1.4,0.3-2.6,1-3.4c0.7-0.9,1.6-1.3,2.7-1.3c1,0,1.7,0.4,2.2,1.2l0,0v-1h2.5V134z M131.9,130.9v-0.7
		c0-0.5-0.2-1-0.5-1.4s-0.7-0.6-1.2-0.6c-0.6,0-1,0.2-1.3,0.7s-0.5,1.1-0.5,1.9c0,0.7,0.1,1.3,0.4,1.7c0.3,0.4,0.7,0.6,1.2,0.6
		s0.9-0.2,1.2-0.6C131.7,132.1,131.9,131.5,131.9,130.9z"/>
</g>
<path class="st0" d="M138.3,148.1H9.7c-5.4,0-9.7-4.4-9.7-9.7V9.7C0,4.4,4.4,0,9.7,0h128.6c5.4,0,9.7,4.4,9.7,9.7v128.6
	C148.1,143.7,143.7,148.1,138.3,148.1z M9.7,7.2c-1.4,0-2.6,1.2-2.6,2.6v128.6c0,1.4,1.2,2.6,2.6,2.6h128.6c1.4,0,2.6-1.2,2.6-2.6
	V9.7c0-1.4-1.2-2.6-2.6-2.6L9.7,7.2L9.7,7.2z"/>
</svg>
